<?xml version="1.0" encoding="UTF-8"?>
<!DOCTYPE svg PUBLIC "-//W3C//DTD SVG 1.1//EN" "http://www.w3.org/Graphics/SVG/1.1/DTD/svg11.dtd">
<!-- Creator: CorelDRAW 2020 (64 Bit) -->
<svg xmlns="http://www.w3.org/2000/svg" xml:space="preserve" width="800px" height="800px" version="1.1" style="shape-rendering:geometricPrecision; text-rendering:geometricPrecision; image-rendering:optimizeQuality; fill-rule:evenodd; clip-rule:evenodd"
viewBox="0 0 800 800"
 xmlns:xlink="http://www.w3.org/1999/xlink"
 xmlns:xodm="http://www.corel.com/coreldraw/odm/2003">
 <defs>
  <style type="text/css">
   <![CDATA[
    .fil0 {fill:#1B2A33}
    .fil1 {fill:#FFF08F}
   ]]>
  </style>
 </defs>
 <g id="Camada_x0020_1">
  <metadata id="CorelCorpID_0Corel-Layer"/>
  <g id="_1562696480560">
   <rect class="fil0" x="250" y="215.5" width="300" height="370" rx="25" ry="26.85"/>
   <rect class="fil1" x="260" y="225.5" width="280" height="350" rx="30" ry="32.66"/>
   <polygon class="fil0" points="412.12,382.99 420.21,280.6 333.99,428.01 395.96,426.1 377.1,520.4 466.01,382.99 "/>
   <g>
    <rect class="fil0" x="292.96" y="575.5" width="34.29" height="51" rx="10" ry="6.3"/>
    <rect class="fil0" x="382.75" y="575.5" width="34.29" height="51" rx="10" ry="6.3"/>
    <rect class="fil0" x="472.75" y="575.5" width="34.29" height="51" rx="10" ry="6.3"/>
   </g>
   <g>
    <rect class="fil0" x="292.96" y="173.5" width="34.29" height="51" rx="10" ry="6.3"/>
    <rect class="fil0" x="382.75" y="173.5" width="34.29" height="51" rx="10" ry="6.3"/>
    <rect class="fil0" x="472.75" y="173.5" width="34.29" height="51" rx="10" ry="6.3"/>
   </g>
  </g>
 </g>
</svg>
